# Blender 4.0.2
# www.blender.org
mtllib magnet_electrical.mtl
o electrical-magnet
v 1.789509 0.294993 0.904990
v 1.094727 -0.473156 0.992660
v 1.021114 -0.479564 0.779467
v 2.210491 0.294993 0.904990
v 1.521926 -0.980144 0.779459
v 1.705007 0.210491 0.904990
v 1.705007 -0.210491 0.904990
v 1.527026 -0.905257 0.992660
v 1.527090 0.905289 0.992660
v 1.789509 -0.294993 0.904990
v 1.521919 0.977628 0.779489
v 2.210491 -0.294993 0.904990
v 2.294993 -0.210491 0.904990
v 1.021113 0.476577 0.779480
v 2.294993 0.210491 0.904990
v 1.094727 0.472715 0.992660
v 1.759341 0.414002 0.903963
v 2.472974 -0.905258 0.992660
v 2.240659 0.414002 0.903963
v 2.478074 -0.980144 0.779459
v 1.585998 0.240659 0.903963
v 2.978886 -0.479564 0.779467
v 1.585998 -0.240659 0.903963
v 2.905273 -0.473156 0.992660
v 1.759341 -0.414002 0.903963
v 2.905273 0.472715 0.992660
v 2.240659 -0.414002 0.903963
v 2.978887 0.476577 0.779480
v 2.414002 -0.240659 0.903963
v 2.414002 0.240659 0.903963
v 2.368996 0.890836 -0.806824
v 2.321889 0.777109 -0.910568
v 1.678111 0.777109 -0.910568
v 1.631004 0.890836 -0.806824
v 1.222891 0.321889 -0.910568
v 1.109164 0.368996 -0.806824
v 1.222891 -0.321889 -0.910568
v 1.109164 -0.368996 -0.806825
v 1.678111 -0.777109 -0.910568
v 1.631004 -0.890836 -0.806825
v 2.321889 -0.777109 -0.910568
v 2.368996 -0.890836 -0.806825
v 2.777109 -0.321889 -0.910568
v 2.890836 -0.368996 -0.806824
v 2.777109 0.321889 -0.910568
v 2.890836 0.368996 -0.806824
v 1.668264 0.800882 -0.316216
v 1.647240 0.851637 -0.363175
v 2.331736 0.800882 -0.316216
v 2.352760 0.851637 -0.363175
v 1.199118 0.331736 -0.316216
v 1.148363 0.352760 -0.363175
v 1.148363 -0.352760 -0.363175
v 1.199118 -0.331736 -0.316216
v 1.647240 -0.851637 -0.363175
v 1.668264 -0.800882 -0.316216
v 2.352760 -0.851637 -0.363175
v 2.331736 -0.800882 -0.316216
v 2.851637 -0.352760 -0.363175
v 2.800882 -0.331736 -0.316216
v 2.851637 0.352760 -0.363175
v 2.800882 0.331736 -0.316216
v 1.633089 -0.842787 -0.118190
v 1.605543 -0.901516 -0.064819
v 1.104732 -0.400934 -0.064821
v 1.163776 -0.373689 -0.118190
v 1.163776 0.360109 -0.118190
v 1.104733 0.387969 -0.064825
v 1.605540 0.889020 -0.064827
v 1.633100 0.829661 -0.118190
v 2.836224 -0.373689 -0.118190
v 2.895268 -0.400934 -0.064821
v 2.394457 -0.901516 -0.064819
v 2.366911 -0.842787 -0.118190
v 2.366900 0.829661 -0.118190
v 2.394460 0.889020 -0.064827
v 2.895267 0.387969 -0.064825
v 2.836224 0.360109 -0.118190
v 1.497202 0.283897 0.992660
v 1.576033 0.246452 0.920725
v 1.753548 0.423967 0.920725
v 1.716094 0.502790 0.992660
v 2.246452 0.423967 0.920725
v 2.284137 0.502790 0.992660
v 2.423967 0.246452 0.920725
v 2.502386 0.284551 0.992660
v 1.497202 -0.283901 0.992660
v 1.576033 -0.246452 0.920725
v 1.716094 -0.502793 0.992660
v 1.753548 -0.423967 0.920725
v 2.284194 -0.502793 0.992660
v 2.246452 -0.423967 0.920725
v 2.502384 -0.284616 0.992660
v 2.423967 -0.246452 0.920725
v 1.761648 0.187404 1.000518
v 1.812596 0.238352 1.000518
v 2.187403 0.238352 1.000518
v 2.238352 0.187403 1.000518
v 1.761648 -0.187404 1.000518
v 1.812596 -0.238352 1.000518
v 2.187403 -0.238352 1.000518
v 2.238352 -0.187404 1.000518
v 2.000000 0.712696 -0.049081
v 1.496048 0.503952 -0.049081
v 1.287304 -0.000000 -0.049081
v 1.496048 -0.503952 -0.049081
v 2.000000 -0.712696 -0.049081
v 2.503952 -0.503952 -0.049081
v 2.712696 -0.000000 -0.049081
v 2.503952 0.503952 -0.049081
v 2.000000 0.712696 -0.370914
v 1.496048 0.503952 -0.370914
v 1.287304 -0.000000 -0.370914
v 1.496048 -0.503952 -0.370914
v 2.000000 -0.712696 -0.370914
v 2.503952 -0.503952 -0.370914
v 2.712696 -0.000000 -0.370914
v 2.503952 0.503952 -0.370914
v 1.751337 -0.184449 -0.827672
v 1.815551 -0.248663 -0.827672
v 2.184449 -0.248663 -0.827672
v 2.248663 -0.184449 -0.827672
v 1.815551 0.248663 -0.827672
v 1.751337 0.184449 -0.827672
v 2.248663 0.184449 -0.827672
v 2.184449 0.248663 -0.827672
v 1.815551 0.248663 -0.990677
v 1.815551 0.184449 -1.054891
v 1.751337 0.184449 -0.990677
v 1.815551 -0.184449 -1.054891
v 1.815551 -0.248663 -0.990677
v 1.751337 -0.184449 -0.990677
v 2.184449 -0.184449 -1.054891
v 2.248663 -0.184449 -0.990677
v 2.184449 -0.248663 -0.990677
v 2.248663 0.184449 -0.990677
v 2.184449 0.184449 -1.054891
v 2.184449 0.248663 -0.990677
v 2.478081 0.977628 0.779489
v 2.472909 0.905289 0.992660
v 1.310909 0.689002 0.992660
v 1.310876 -0.689207 0.992660
v 1.094727 -0.000220 0.992660
v 2.000000 -0.905258 0.992660
v 2.689124 -0.689207 0.992660
v 2.905273 -0.000220 0.992660
v 2.689091 0.689002 0.992660
v 2.000000 0.905289 0.992660
v 2.000000 0.000000 -0.316216
v 1.999994 -0.006563 -0.118190
vn 0.9951 -0.0000 -0.0986
vn -0.9951 -0.0000 -0.0986
vn 1.0000 -0.0000 -0.0000
vn -0.0000 0.9945 -0.1044
vn -0.9961 -0.0000 0.0880
vn 0.7044 -0.7044 0.0880
vn -0.7044 -0.7044 0.0880
vn 0.9961 -0.0000 0.0880
vn -0.0000 -0.9961 0.0880
vn -0.0000 -0.0000 -1.0000
vn 0.7044 0.7044 0.0880
vn -0.0000 1.0000 -0.0000
vn -0.0000 0.9961 0.0880
vn -1.0000 -0.0000 -0.0000
vn 0.7005 -0.7008 -0.1346
vn -0.7000 0.6997 -0.1428
vn -0.0000 -0.9957 -0.0927
vn 0.7000 0.6997 -0.1428
vn 0.6833 -0.6836 0.2565
vn -0.6850 0.6847 0.2489
vn -0.6833 -0.6836 0.2565
vn -0.0000 -0.9435 0.3314
vn -0.9452 -0.0000 0.3264
vn 0.9452 -0.0000 0.3264
vn -0.0000 0.6739 -0.7388
vn -0.4765 0.4765 -0.7388
vn -0.6739 -0.0000 -0.7388
vn -0.4765 -0.4765 -0.7388
vn -0.0000 -0.6739 -0.7388
vn 0.4765 -0.4765 -0.7388
vn 0.6739 -0.0000 -0.7388
vn 0.4765 0.4765 -0.7388
vn -0.7044 0.7044 0.0880
vn -0.6791 -0.0000 0.7340
vn -0.4802 0.4802 0.7340
vn -0.0000 0.6791 0.7340
vn -0.4802 -0.4802 0.7340
vn -0.0000 -0.6791 0.7340
vn 0.4802 -0.4802 0.7340
vn 0.6791 -0.0000 0.7340
vn 0.4802 0.4802 0.7340
vn -0.4655 -0.4657 -0.7527
vn -0.4637 0.4635 -0.7551
vn 0.4655 -0.4657 -0.7527
vn 0.4637 0.4635 -0.7551
vn -0.0000 -0.6725 -0.7401
vn -0.6705 -0.0000 -0.7419
vn -0.0000 0.6685 -0.7437
vn 0.6705 -0.0000 -0.7419
vn -0.7005 -0.7008 -0.1346
vn 0.0069 0.0069 1.0000
vn 0.0069 -0.0069 1.0000
vn -0.0069 -0.0069 1.0000
vn -0.0069 0.0069 1.0000
vn 0.0086 -0.0000 1.0000
vn -0.0000 -0.0086 1.0000
vn -0.0086 -0.0000 1.0000
vn -0.0000 0.0086 1.0000
vn -0.6090 0.6090 0.5082
vn 0.6090 0.6090 0.5082
vn -0.0000 -0.0000 1.0000
vn -0.5889 -0.5889 0.5536
vn -0.0000 -0.8602 0.5100
vn -0.0000 0.8602 0.5100
vn 0.5889 -0.5889 0.5536
vn -0.0000 0.8596 0.5110
vn -0.8602 -0.0000 0.5100
vn -0.5889 0.5889 0.5536
vn 0.6090 -0.6090 0.5082
vn 0.5889 0.5889 0.5536
vn -0.0000 -0.8596 0.5110
vn -0.8596 -0.0000 0.5110
vn 0.4656 -0.4656 0.7526
vn -0.0000 -0.6741 0.7386
vn -0.4651 -0.4651 0.7533
vn 0.6741 -0.0000 0.7387
vn -0.0000 0.6741 0.7387
vn -0.4649 0.4649 0.7534
vn 0.4656 0.4656 0.7526
vn -0.6760 -0.0000 0.7369
vn 0.8596 -0.0000 0.5110
vn 0.8602 -0.0000 0.5100
vn 0.9239 0.3827 -0.0000
vn 0.3827 -0.9239 -0.0000
vn -0.9239 -0.3827 -0.0000
vn -0.3827 0.9239 -0.0000
vn 0.3827 0.9239 -0.0000
vn 0.9239 -0.3827 -0.0000
vn -0.3827 -0.9239 -0.0000
vn -0.9239 0.3827 -0.0000
vn -0.5773 0.5774 -0.5773
vn -0.5773 -0.5774 -0.5773
vn 0.5773 -0.5774 -0.5773
vn 0.5773 0.5774 -0.5773
vn -0.7071 0.7071 -0.0000
vn -0.7071 -0.0000 -0.7071
vn 0.7071 -0.0000 -0.7071
vn -0.7071 -0.7071 -0.0000
vn -0.0000 0.7071 -0.7071
vn 0.7071 -0.7071 -0.0000
vn 0.7071 0.7071 -0.0000
vn -0.0000 -0.7071 -0.7071
vn -0.0000 -1.0000 -0.0000
vn 0.6850 0.6847 0.2490
vn -0.0000 0.9470 0.3214
vn 0.6850 0.6847 0.2489
vn -0.6850 0.6847 0.2490
vn -0.6090 -0.6090 0.5082
vt 0.592299 0.612102
vt 0.037840 0.612102
vt 0.037840 0.152997
vt 0.592299 0.152997
vt 0.496154 0.062130
vt 0.496154 0.408689
vt 0.140833 0.408689
vt 0.140833 0.062130
vt 0.408527 0.131794
vt 0.527820 0.250778
vt 0.113373 0.250778
vt 0.231861 0.131945
vt 0.557671 0.565990
vt 0.082676 0.565990
vt 0.082676 0.090995
vt 0.557671 0.090995
vt 0.037840 0.008564
vt 0.313298 0.008564
vt 0.592299 0.008564
vt 0.592299 0.671692
vt 0.037840 0.671692
vt 0.820365 0.781889
vt 0.846144 0.734632
vt 0.871285 0.759773
vt 0.824028 0.785553
vt 0.798451 0.785553
vt 0.751193 0.759773
vt 0.776335 0.734632
vt 0.802114 0.781889
vt 0.802114 0.807467
vt 0.776335 0.854724
vt 0.751193 0.829583
vt 0.798451 0.803803
vt 0.824028 0.803803
vt 0.871285 0.829583
vt 0.846144 0.854724
vt 0.820365 0.807467
vt 0.168313 0.461268
vt 0.200916 0.493312
vt 0.165488 0.575844
vt 0.087419 0.502489
vt 0.440056 0.492615
vt 0.472903 0.460275
vt 0.554864 0.496400
vt 0.481089 0.573814
vt 0.318646 0.677571
vt 0.318646 0.997148
vt 0.011510 0.852974
vt 0.980711 0.540601
vt 0.980710 0.638091
vt 0.617579 0.638091
vt 0.617579 0.540601
vt 0.442059 0.190870
vt 0.202534 0.191962
vt 0.161419 0.111231
vt 0.477220 0.107699
vt 0.113152 0.921703
vt 0.169424 0.223426
vt 0.087176 0.187855
vt 0.474387 0.223697
vt 0.555048 0.182055
vt 0.616802 0.048928
vt 0.978744 0.048928
vt 0.526693 0.921703
vt 0.626709 0.852974
vt 0.811859 0.859689
vt 0.707189 0.859689
vt 0.707189 0.726817
vt 0.811859 0.726818
vt 0.811859 0.859688
vt 0.707189 0.726817
vt 0.811859 0.726817
vt 0.916530 0.859689
vt 0.916530 0.726817
vt 0.916530 0.859689
vt 0.916530 0.726817
vt 0.088238 0.147089
vt 0.055410 0.024571
vt 0.177928 0.057399
vt 0.249229 0.308080
vt 0.338919 0.218390
vt 0.496154 0.601761
vt 0.140833 0.601761
vt 0.527971 0.427315
vt 0.113525 0.427767
vt 0.408882 0.546374
vt 0.232216 0.546526
vt 0.477556 0.226751
vt 0.322774 0.646890
vt 0.165379 0.226938
vt 0.617671 0.327229
vt 0.978493 0.327229
vt 0.798082 0.625108
s 0
usemtl magnet-electrical
f 72/1/1 77/2/1 28/3/1 22/4/1
f 3/3/2 14/4/2 68/1/2 65/2/2
f 122/5/3 134/6/3 136/7/3 125/8/3
f 11/3/4 139/4/4 76/1/4 69/2/4
f 38/4/5 53/1/5 52/2/5 36/3/5
f 44/4/6 59/1/6 57/2/6 42/3/6
f 40/4/7 55/1/7 53/2/7 38/3/7
f 46/4/8 61/1/8 59/2/8 44/3/8
f 42/4/9 57/1/9 55/2/9 40/3/9
f 35/9/10 33/10/10 39/11/10 37/12/10
f 31/4/11 50/1/11 61/2/11 46/3/11
f 126/5/12 138/6/12 127/7/12 123/8/12
f 34/4/13 48/1/13 50/2/13 31/3/13
f 128/13/10 137/14/10 133/15/10 130/16/10
f 124/5/14 129/6/14 132/7/14 119/8/14
f 20/4/15 73/1/15 72/2/15 22/3/15
f 11/4/16 69/1/16 68/2/16 14/3/16
f 64/1/17 73/2/17 20/3/17 5/4/17
f 28/4/18 77/1/18 76/2/18 139/3/18
f 24/17/19 145/18/19 22/3/19
f 16/17/20 141/18/20 14/3/20
f 8/17/21 142/18/21 5/3/21
f 18/17/22 144/18/22 20/3/22
f 2/17/23 143/18/23 3/3/23
f 22/4/24 28/3/24 146/18/24
f 34/4/25 31/3/25 32/17/25 33/19/25
f 36/4/26 34/3/26 33/17/26 35/19/26
f 38/4/27 36/3/27 35/17/27 37/19/27
f 40/4/28 38/3/28 37/17/28 39/19/28
f 42/4/29 40/3/29 39/17/29 41/19/29
f 44/4/30 42/3/30 41/17/30 43/19/30
f 46/4/31 44/3/31 43/17/31 45/19/31
f 31/4/32 46/3/32 45/17/32 32/19/32
f 36/4/33 52/1/33 48/2/33 34/3/33
f 54/20/34 51/21/34 52/2/34 53/1/34
f 51/20/35 47/21/35 48/2/35 52/1/35
f 47/20/36 49/21/36 50/2/36 48/1/36
f 56/20/37 54/21/37 53/2/37 55/1/37
f 58/20/38 56/21/38 55/2/38 57/1/38
f 60/20/39 58/21/39 57/2/39 59/1/39
f 62/20/40 60/21/40 59/2/40 61/1/40
f 49/20/41 62/21/41 61/2/41 50/1/41
f 66/20/42 63/21/42 64/2/42 65/1/42
f 70/20/43 67/21/43 68/2/43 69/1/43
f 74/20/44 71/21/44 72/2/44 73/1/44
f 78/20/45 75/21/45 76/2/45 77/1/45
f 63/20/46 74/21/46 73/2/46 64/1/46
f 67/20/47 66/21/47 65/2/47 68/1/47
f 75/20/48 70/21/48 69/2/48 76/1/48
f 77/2/49 72/1/49 71/20/49 78/21/49
f 64/2/50 5/3/50 3/4/50 65/1/50
f 15/22/51 30/23/51 19/24/51 4/25/51
f 12/26/52 27/27/52 29/28/52 13/29/52
f 7/30/53 23/31/53 25/32/53 10/33/53
f 1/34/54 17/35/54 21/36/54 6/37/54
f 13/29/55 29/28/55 30/23/55 15/22/55
f 10/33/56 25/32/56 27/27/56 12/26/56
f 6/37/57 21/36/57 23/31/57 7/30/57
f 4/25/58 19/24/58 17/35/58 1/34/58
f 95/38/59 96/39/59 1/40/59 6/41/59
f 97/42/60 98/43/60 15/44/60 4/45/60
f 93/46/61 24/47/61 146/48/61
f 83/49/62 19/50/62 30/51/62 85/52/62
f 101/53/63 100/54/63 10/55/63 12/56/63
f 18/47/61 145/57/61 91/46/61
f 96/39/64 97/42/64 4/45/64 1/40/64
f 21/50/65 17/51/65 81/52/65 80/49/65
f 92/49/66 27/50/66 25/51/66 90/52/66
f 99/58/67 95/38/67 6/41/67 7/59/67
f 29/50/68 27/51/68 92/52/68 94/49/68
f 102/60/69 101/53/69 12/56/69 13/61/69
f 90/49/70 25/50/70 23/51/70 88/52/70
f 81/49/71 17/50/71 19/51/71 83/52/71
f 30/50/72 29/51/72 94/52/72 85/49/72
f 80/49/73 81/52/73 82/62/73 79/63/73
f 81/49/74 83/52/74 84/62/74 82/63/74
f 83/49/75 85/52/75 86/62/75 84/63/75
f 79/62/76 87/63/76 88/49/76 80/52/76
f 89/62/77 91/63/77 92/49/77 90/52/77
f 91/62/78 93/63/78 94/49/78 92/52/78
f 87/62/79 89/63/79 90/49/79 88/52/79
f 85/49/80 94/52/80 93/62/80 86/63/80
f 88/49/81 23/50/81 21/51/81 80/52/81
f 98/43/82 102/60/82 13/61/82 15/44/82
f 97/42/61 101/53/61 102/60/61 98/43/61
f 16/47/61 79/46/61 141/64/61
f 91/46/61 144/65/61 18/47/61
f 8/47/61 89/46/61 142/64/61
f 2/47/61 87/46/61 143/65/61
f 100/54/61 96/39/61 95/38/61 99/58/61
f 101/53/61 97/42/61 96/39/61 100/54/61
f 110/66/83 109/67/83 117/68/83 118/69/83
f 108/70/84 107/67/84 115/71/84 116/72/84
f 106/70/85 105/67/85 113/71/85 114/72/85
f 104/66/86 103/67/86 111/68/86 112/69/86
f 103/73/87 110/66/87 118/69/87 111/74/87
f 109/75/88 108/70/88 116/72/88 117/76/88
f 107/75/89 106/70/89 114/72/89 115/76/89
f 105/73/90 104/66/90 112/69/90 113/74/90
f 127/77/91 128/78/91 129/79/91
f 130/78/92 131/79/92 132/77/92
f 133/78/93 134/79/93 135/77/93
f 136/77/94 137/78/94 138/79/94
f 123/80/95 127/77/95 129/79/95 124/81/95
f 128/82/96 130/83/96 132/7/96 129/6/96
f 133/82/97 137/83/97 136/7/97 134/6/97
f 119/80/98 132/77/98 131/79/98 120/81/98
f 127/7/99 138/6/99 137/82/99 128/83/99
f 121/80/100 135/77/100 134/79/100 122/81/100
f 125/80/101 136/77/101 138/79/101 126/81/101
f 130/82/102 133/83/102 135/7/102 131/6/102
f 120/5/103 131/6/103 135/7/103 121/8/103
f 39/11/10 33/10/10 32/84/10 41/85/10
f 41/85/10 32/84/10 45/86/10 43/87/10
f 28/4/104 139/3/104 147/18/104
f 11/3/105 9/17/105 148/18/105
f 86/46/61 26/47/61 147/57/61
f 84/88/61 148/89/61 82/90/61
f 147/89/61 84/90/61 86/88/61
f 148/48/61 84/46/61 140/47/61
f 147/18/104 139/3/104 140/17/104
f 139/4/105 148/18/105 140/19/105
f 141/57/61 82/46/61 9/47/61
f 146/18/24 28/3/24 26/17/24
f 146/18/24 24/19/24 22/4/24
f 22/3/19 145/18/19 20/4/19
f 20/4/19 145/18/19 18/19/19
f 5/3/21 142/18/21 3/4/21
f 3/4/21 142/18/21 2/19/21
f 144/89/61 91/90/61 89/88/61
f 89/46/61 8/47/61 144/48/61
f 143/48/61 79/46/61 16/47/61
f 79/88/61 143/89/61 87/90/61
f 3/3/23 143/18/23 14/4/23
f 14/4/23 143/18/23 16/19/23
f 91/88/61 145/89/61 93/90/61
f 93/46/61 145/64/61 24/47/61
f 84/46/61 147/64/61 140/47/61
f 147/18/106 26/19/106 28/4/106
f 14/3/107 141/18/107 11/4/107
f 20/3/22 144/18/22 5/4/22
f 5/4/22 144/18/22 8/19/22
f 142/57/61 87/46/61 2/47/61
f 87/88/61 142/89/61 89/90/61
f 146/65/61 26/47/61 86/46/61
f 86/90/61 93/88/61 146/89/61
f 11/4/107 141/18/107 9/19/107
f 82/46/61 148/65/61 9/47/61
f 141/89/61 79/90/61 82/88/61
f 148/18/105 139/4/105 11/3/105
f 100/54/108 99/58/108 7/59/108 10/55/108
f 62/91/61 49/92/61 149/93/61
f 47/92/61 149/93/61 49/91/61
f 60/92/61 149/93/61 58/91/61
f 62/92/61 149/93/61 60/91/61
f 58/92/61 149/93/61 56/91/61
f 56/92/61 149/93/61 54/91/61
f 54/92/61 149/93/61 51/91/61
f 47/91/61 51/92/61 149/93/61
f 75/92/10 150/93/10 70/91/10
f 70/92/10 150/93/10 67/91/10
f 67/92/10 150/93/10 66/91/10
f 66/92/10 150/93/10 63/91/10
f 74/91/10 63/92/10 150/93/10
f 74/92/10 150/93/10 71/91/10
f 78/91/10 71/92/10 150/93/10
f 75/91/10 78/92/10 150/93/10
