# Blender 4.0.2
# www.blender.org
mtllib magnet_electrical.mtl
o electrical-magnet
v -0.210491 0.294993 0.904990
v -0.905273 -0.473156 0.992660
v -0.978886 -0.479564 0.779467
v 0.210491 0.294993 0.904990
v -0.478074 -0.980144 0.779459
v -0.294993 0.210491 0.904990
v -0.294993 -0.210491 0.904990
v -0.472974 -0.905257 0.992660
v -0.472910 0.905289 0.992660
v -0.210491 -0.294993 0.904990
v -0.478081 0.977628 0.779489
v 0.210491 -0.294993 0.904990
v 0.294993 -0.210491 0.904990
v -0.978887 0.476577 0.779480
v 0.294993 0.210491 0.904990
v -0.905273 0.472715 0.992660
v -0.240659 0.414002 0.903963
v 0.472974 -0.905258 0.992660
v 0.240659 0.414002 0.903963
v 0.478074 -0.980144 0.779459
v -0.414002 0.240659 0.903963
v 0.978886 -0.479564 0.779467
v -0.414002 -0.240659 0.903963
v 0.905273 -0.473156 0.992660
v -0.240659 -0.414002 0.903963
v 0.905273 0.472715 0.992660
v 0.240659 -0.414002 0.903963
v 0.978887 0.476577 0.779480
v 0.414002 -0.240659 0.903963
v 0.414002 0.240659 0.903963
v 0.368996 0.890836 -0.806824
v 0.321889 0.777109 -0.910568
v -0.321889 0.777109 -0.910568
v -0.368996 0.890836 -0.806824
v -0.777109 0.321889 -0.910568
v -0.890836 0.368996 -0.806824
v -0.777109 -0.321889 -0.910568
v -0.890836 -0.368996 -0.806825
v -0.321889 -0.777109 -0.910568
v -0.368996 -0.890836 -0.806825
v 0.321889 -0.777109 -0.910568
v 0.368996 -0.890836 -0.806825
v 0.777109 -0.321889 -0.910568
v 0.890836 -0.368996 -0.806824
v 0.777109 0.321889 -0.910568
v 0.890836 0.368996 -0.806824
v -0.244040 0.589164 -0.316216
v -0.352760 0.851637 -0.363175
v 0.244040 0.589164 -0.316216
v 0.352760 0.851637 -0.363175
v -0.589164 0.244040 -0.316216
v -0.851637 0.352760 -0.363175
v -0.851637 -0.352760 -0.363175
v -0.589164 -0.244040 -0.316216
v -0.352760 -0.851637 -0.363175
v -0.244040 -0.589164 -0.316216
v 0.352760 -0.851637 -0.363175
v 0.244040 -0.589164 -0.316216
v 0.851637 -0.352760 -0.363175
v 0.589164 -0.244040 -0.316216
v 0.851637 0.352760 -0.363175
v 0.589164 0.244040 -0.316216
v -0.256383 -0.588211 -0.118190
v -0.394457 -0.901516 -0.064819
v -0.895268 -0.400934 -0.064821
v -0.581638 -0.263104 -0.118190
v -0.581638 0.249629 -0.118190
v -0.895268 0.387969 -0.064825
v -0.394460 0.889020 -0.064827
v -0.256361 0.575064 -0.118190
v 0.581637 -0.263104 -0.118190
v 0.895268 -0.400934 -0.064821
v 0.394457 -0.901516 -0.064819
v 0.256381 -0.588211 -0.118190
v 0.256360 0.575064 -0.118190
v 0.394460 0.889020 -0.064827
v 0.895268 0.387969 -0.064825
v 0.581637 0.249629 -0.118190
v -0.502798 0.283897 0.992660
v -0.423967 0.246452 0.920725
v -0.246452 0.423967 0.920725
v -0.283906 0.502790 0.992660
v 0.246452 0.423967 0.920725
v 0.284137 0.502790 0.992660
v 0.423967 0.246452 0.920725
v 0.502386 0.284551 0.992660
v -0.502798 -0.283901 0.992660
v -0.423967 -0.246452 0.920725
v -0.283906 -0.502793 0.992660
v -0.246452 -0.423967 0.920725
v 0.284194 -0.502793 0.992660
v 0.246452 -0.423967 0.920725
v 0.502384 -0.284616 0.992660
v 0.423967 -0.246452 0.920725
v -0.238352 0.187404 1.000518
v -0.187404 0.238352 1.000518
v 0.187404 0.238352 1.000518
v 0.238352 0.187403 1.000518
v -0.238352 -0.187404 1.000518
v -0.187404 -0.238352 1.000518
v 0.187404 -0.238352 1.000518
v 0.238352 -0.187404 1.000518
v -0.000000 0.712696 -0.049081
v -0.503952 0.503952 -0.049081
v -0.712696 -0.000000 -0.049081
v -0.503952 -0.503952 -0.049081
v -0.000000 -0.712696 -0.049081
v 0.503952 -0.503952 -0.049081
v 0.712696 -0.000000 -0.049081
v 0.503952 0.503952 -0.049081
v -0.000000 0.712696 -0.370914
v -0.503952 0.503952 -0.370914
v -0.712696 -0.000000 -0.370914
v -0.503952 -0.503952 -0.370914
v -0.000000 -0.712696 -0.370914
v 0.503952 -0.503952 -0.370914
v 0.712696 -0.000000 -0.370914
v 0.503952 0.503952 -0.370914
v -0.248663 -0.184449 -0.827672
v -0.184449 -0.248663 -0.827672
v 0.184449 -0.248663 -0.827672
v 0.248663 -0.184449 -0.827672
v -0.184449 0.248663 -0.827672
v -0.248663 0.184449 -0.827672
v 0.248663 0.184449 -0.827672
v 0.184449 0.248663 -0.827672
v -0.184449 0.248663 -0.990677
v -0.184449 0.184449 -1.054891
v -0.248663 0.184449 -0.990677
v -0.184449 -0.184449 -1.054891
v -0.184449 -0.248663 -0.990677
v -0.248663 -0.184449 -0.990677
v 0.184449 -0.184449 -1.054891
v 0.248663 -0.184449 -0.990677
v 0.184449 -0.248663 -0.990677
v 0.248663 0.184449 -0.990677
v 0.184449 0.184449 -1.054891
v 0.184449 0.248663 -0.990677
v 0.478081 0.977628 0.779489
v 0.472909 0.905289 0.992660
v -0.689091 0.689002 0.992660
v -0.689124 -0.689207 0.992660
v -0.905273 -0.000220 0.992660
v 0.000000 -0.905258 0.992660
v 0.689124 -0.689207 0.992660
v 0.905273 -0.000220 0.992660
v 0.689091 0.689002 0.992660
v -0.000000 0.905289 0.992660
v -0.366911 -0.842787 -0.118190
v -0.836224 -0.373689 -0.118190
v -0.836224 0.360109 -0.118190
v -0.366900 0.829661 -0.118190
v 0.836224 -0.373689 -0.118190
v 0.366911 -0.842787 -0.118190
v 0.366900 0.829661 -0.118190
v 0.836224 0.360109 -0.118190
v -0.331736 0.800882 -0.316216
v 0.331736 0.800882 -0.316216
v -0.800882 0.331736 -0.316216
v -0.800882 -0.331736 -0.316216
v -0.331736 -0.800882 -0.316216
v 0.331736 -0.800882 -0.316216
v 0.800882 -0.331736 -0.316216
v 0.800882 0.331736 -0.316216
vn 0.9951 -0.0000 -0.0986
vn -0.9951 -0.0000 -0.0986
vn 1.0000 -0.0000 -0.0000
vn -0.0000 0.9945 -0.1044
vn -0.9961 -0.0000 0.0880
vn 0.7044 -0.7044 0.0880
vn -0.7044 -0.7044 0.0880
vn 0.9961 -0.0000 0.0880
vn -0.0000 -0.9961 0.0880
vn -0.0000 -0.0000 -1.0000
vn 0.7044 0.7044 0.0880
vn -0.0000 1.0000 -0.0000
vn -0.0000 0.9961 0.0880
vn -1.0000 -0.0000 -0.0000
vn 0.7005 -0.7008 -0.1346
vn -0.7000 0.6997 -0.1428
vn -0.0000 -0.9957 -0.0927
vn 0.7000 0.6997 -0.1428
vn 0.6833 -0.6836 0.2565
vn -0.6850 0.6847 0.2489
vn -0.6833 -0.6836 0.2565
vn -0.0000 -0.9435 0.3314
vn -0.9452 -0.0000 0.3264
vn 0.9452 -0.0000 0.3264
vn -0.0000 0.6739 -0.7388
vn -0.4765 0.4765 -0.7388
vn -0.6739 -0.0000 -0.7388
vn -0.4765 -0.4765 -0.7388
vn -0.0000 -0.6739 -0.7388
vn 0.4765 -0.4765 -0.7388
vn 0.6739 -0.0000 -0.7388
vn 0.4765 0.4765 -0.7388
vn -0.7044 0.7044 0.0880
vn -0.6791 -0.0000 0.7340
vn -0.4802 0.4802 0.7340
vn -0.0000 0.6791 0.7340
vn -0.4802 -0.4802 0.7340
vn -0.0000 -0.6791 0.7340
vn 0.4802 -0.4802 0.7340
vn 0.6791 -0.0000 0.7340
vn 0.4802 0.4802 0.7340
vn -0.4655 -0.4657 -0.7527
vn -0.4637 0.4635 -0.7551
vn 0.4655 -0.4657 -0.7527
vn 0.4637 0.4635 -0.7551
vn -0.0000 -0.6725 -0.7401
vn -0.6705 -0.0000 -0.7419
vn -0.0000 0.6685 -0.7437
vn 0.6705 -0.0000 -0.7419
vn -0.7005 -0.7008 -0.1346
vn 0.0069 0.0069 1.0000
vn 0.0069 -0.0069 1.0000
vn -0.0069 -0.0069 1.0000
vn -0.0069 0.0069 1.0000
vn 0.0086 -0.0000 1.0000
vn -0.0000 -0.0086 1.0000
vn -0.0086 -0.0000 1.0000
vn -0.0000 0.0086 1.0000
vn -0.6090 0.6090 0.5082
vn 0.6090 0.6090 0.5082
vn -0.0000 -0.0000 1.0000
vn -0.5889 -0.5889 0.5536
vn -0.0000 -0.8602 0.5100
vn -0.0000 0.8602 0.5100
vn 0.5889 -0.5889 0.5536
vn -0.0000 0.8596 0.5110
vn -0.8602 -0.0000 0.5100
vn -0.5889 0.5889 0.5536
vn 0.6090 -0.6090 0.5082
vn 0.5889 0.5889 0.5536
vn -0.0000 -0.8596 0.5110
vn -0.8596 -0.0000 0.5110
vn 0.4656 -0.4656 0.7526
vn -0.0000 -0.6741 0.7386
vn -0.4651 -0.4651 0.7533
vn 0.6741 -0.0000 0.7387
vn -0.0000 0.6741 0.7387
vn -0.4649 0.4649 0.7534
vn 0.4656 0.4656 0.7526
vn -0.6760 -0.0000 0.7369
vn 0.8596 -0.0000 0.5110
vn 0.8602 -0.0000 0.5100
vn 0.9239 0.3827 -0.0000
vn 0.3827 -0.9239 -0.0000
vn -0.9239 -0.3827 -0.0000
vn -0.3827 0.9239 -0.0000
vn 0.3827 0.9239 -0.0000
vn 0.9239 -0.3827 -0.0000
vn -0.3827 -0.9239 -0.0000
vn -0.9239 0.3827 -0.0000
vn -0.5773 0.5774 -0.5773
vn -0.5773 -0.5774 -0.5773
vn 0.5773 -0.5774 -0.5773
vn 0.5773 0.5774 -0.5773
vn -0.7071 0.7071 -0.0000
vn -0.7071 -0.0000 -0.7071
vn 0.7071 -0.0000 -0.7071
vn -0.7071 -0.7071 -0.0000
vn -0.0000 0.7071 -0.7071
vn 0.7071 -0.7071 -0.0000
vn 0.7071 0.7071 -0.0000
vn -0.0000 -0.7071 -0.7071
vn -0.0000 -1.0000 -0.0000
vn 0.6850 0.6847 0.2490
vn -0.0000 0.9470 0.3214
vn 0.6850 0.6847 0.2489
vn -0.6850 0.6847 0.2490
vn -0.6090 -0.6090 0.5082
vt 0.602430 0.669479
vt 0.036173 0.669480
vt 0.036173 0.162255
vt 0.602430 0.162259
vt 0.589584 0.035493
vt 0.589584 0.433189
vt 0.047403 0.433189
vt 0.047403 0.035493
vt 0.598389 0.098806
vt 0.598389 0.639280
vt 0.036136 0.639280
vt 0.036136 0.098806
vt 0.592106 0.038483
vt 0.604977 0.223201
vt 0.033722 0.223201
vt 0.044873 0.038718
vt 0.601178 0.682386
vt 0.039168 0.682386
vt 0.039168 0.047488
vt 0.601178 0.047488
vt 0.036173 0.035171
vt 0.320725 0.035171
vt 0.036136 0.036673
vt 0.598389 0.036673
vt 0.598389 0.682660
vt 0.036136 0.682660
vt 0.602430 0.684467
vt 0.036173 0.684467
vt 0.837699 0.780127
vt 0.886503 0.726356
vt 0.934098 0.754962
vt 0.844634 0.784295
vt 0.796213 0.784295
vt 0.706749 0.754962
vt 0.754345 0.726356
vt 0.803148 0.780127
vt 0.803148 0.809229
vt 0.754344 0.863000
vt 0.706749 0.834393
vt 0.796213 0.805061
vt 0.844634 0.805061
vt 0.934098 0.834393
vt 0.886502 0.863000
vt 0.837699 0.809229
vt 0.629086 0.086555
vt 0.976605 0.086555
vt 0.976605 0.646116
vt 0.629086 0.646116
vt 0.326563 0.695375
vt 0.326563 0.997148
vt 0.019427 0.845477
vt 0.980628 0.547041
vt 0.980628 0.641876
vt 0.627385 0.641876
vt 0.627385 0.547040
vt 0.121069 0.917955
vt 0.626629 0.068756
vt 0.978715 0.068756
vt 0.606011 0.096741
vt 0.030403 0.096741
vt 0.091271 0.037741
vt 0.545143 0.037741
vt 0.534610 0.917955
vt 0.634626 0.845477
vt 0.030403 0.625228
vt 0.606011 0.625228
vt 0.545143 0.684227
vt 0.091271 0.684227
vt 0.811859 0.859689
vt 0.707189 0.859689
vt 0.707189 0.726817
vt 0.811859 0.726818
vt 0.811859 0.859688
vt 0.707189 0.726817
vt 0.811859 0.726817
vt 0.916530 0.859689
vt 0.916530 0.726817
vt 0.916530 0.859689
vt 0.916530 0.726817
vt 0.046140 0.218843
vt 0.052341 0.057296
vt 0.213888 0.051095
vt 0.052341 0.057296
vt 0.045683 0.541281
vt 0.536326 0.050638
vt 0.589584 0.687898
vt 0.047403 0.687898
vt 0.536326 0.050639
vt 0.605186 0.497269
vt 0.033931 0.497971
vt 0.593207 0.682104
vt 0.045974 0.682339
vt 0.391959 0.099831
vt 0.570713 0.524984
vt 0.157361 0.299467
vt 0.052365 0.676036
vt 0.185645 0.234789
vt 0.439270 0.411216
vt 0.602430 0.035172
vt 0.891755 0.696526
vt 0.726330 0.696526
vt 0.643129 0.084853
vt 0.974954 0.084853
vt 0.982614 0.624862
vt 0.628335 0.624862
vt 0.628335 0.122487
vt 0.982614 0.122487
s 0
usemtl magnet-electrical
f 72/1/1 77/2/1 28/3/1 22/4/1
f 3/3/2 14/4/2 68/1/2 65/2/2
f 122/5/3 134/6/3 136/7/3 125/8/3
f 11/3/4 139/4/4 76/1/4 69/2/4
f 38/9/5 53/10/5 52/11/5 36/12/5
f 44/9/6 59/10/6 57/11/6 42/12/6
f 40/9/7 55/10/7 53/11/7 38/12/7
f 46/9/8 61/10/8 59/11/8 44/12/8
f 42/9/9 57/10/9 55/11/9 40/12/9
f 35/13/10 33/14/10 39/15/10 37/16/10
f 31/9/11 50/10/11 61/11/11 46/12/11
f 126/5/12 138/6/12 127/7/12 123/8/12
f 34/9/13 48/10/13 50/11/13 31/12/13
f 128/17/10 137/18/10 133/19/10 130/20/10
f 124/5/14 129/6/14 132/7/14 119/8/14
f 20/4/15 73/1/15 72/2/15 22/3/15
f 11/4/16 69/1/16 68/2/16 14/3/16
f 64/1/17 73/2/17 20/3/17 5/4/17
f 28/4/18 77/1/18 76/2/18 139/3/18
f 24/21/19 145/22/19 22/3/19
f 16/21/20 141/22/20 14/3/20
f 8/21/21 142/22/21 5/3/21
f 18/21/22 144/22/22 20/3/22
f 2/21/23 143/22/23 3/3/23
f 22/4/24 28/3/24 146/22/24
f 34/9/25 31/12/25 32/23/25 33/24/25
f 36/9/26 34/12/26 33/23/26 35/24/26
f 38/9/27 36/12/27 35/23/27 37/24/27
f 40/9/28 38/12/28 37/23/28 39/24/28
f 42/9/29 40/12/29 39/23/29 41/24/29
f 44/9/30 42/12/30 41/23/30 43/24/30
f 46/9/31 44/12/31 43/23/31 45/24/31
f 31/9/32 46/12/32 45/23/32 32/24/32
f 36/9/33 52/10/33 48/11/33 34/12/33
f 160/25/34 159/26/34 52/11/34 53/10/34
f 159/25/35 157/26/35 48/11/35 52/10/35
f 157/25/36 158/26/36 50/11/36 48/10/36
f 161/25/37 160/26/37 53/11/37 55/10/37
f 162/25/38 161/26/38 55/11/38 57/10/38
f 163/25/39 162/26/39 57/11/39 59/10/39
f 164/25/40 163/26/40 59/11/40 61/10/40
f 158/25/41 164/26/41 61/11/41 50/10/41
f 150/27/42 149/28/42 64/2/42 65/1/42
f 152/27/43 151/28/43 68/2/43 69/1/43
f 154/27/44 153/28/44 72/2/44 73/1/44
f 156/27/45 155/28/45 76/2/45 77/1/45
f 149/27/46 154/28/46 73/2/46 64/1/46
f 151/27/47 150/28/47 65/2/47 68/1/47
f 155/27/48 152/28/48 69/2/48 76/1/48
f 77/2/49 72/1/49 153/27/49 156/28/49
f 64/2/50 5/3/50 3/4/50 65/1/50
f 15/29/51 30/30/51 19/31/51 4/32/51
f 12/33/52 27/34/52 29/35/52 13/36/52
f 7/37/53 23/38/53 25/39/53 10/40/53
f 1/41/54 17/42/54 21/43/54 6/44/54
f 13/36/55 29/35/55 30/30/55 15/29/55
f 10/40/56 25/39/56 27/34/56 12/33/56
f 6/44/57 21/43/57 23/38/57 7/37/57
f 4/32/58 19/31/58 17/42/58 1/41/58
f 95/45/59 96/46/59 1/47/59 6/48/59
f 97/45/60 98/46/60 15/47/60 4/48/60
f 93/49/61 24/50/61 146/51/61
f 83/52/62 19/53/62 30/54/62 85/55/62
f 101/45/63 100/46/63 10/47/63 12/48/63
f 18/50/61 145/56/61 91/49/61
f 96/45/64 97/46/64 4/47/64 1/48/64
f 21/53/65 17/54/65 81/55/65 80/52/65
f 92/52/66 27/53/66 25/54/66 90/55/66
f 99/45/67 95/46/67 6/47/67 7/48/67
f 29/53/68 27/54/68 92/55/68 94/52/68
f 102/45/69 101/46/69 12/47/69 13/48/69
f 90/52/70 25/53/70 23/54/70 88/55/70
f 81/52/71 17/53/71 19/54/71 83/55/71
f 30/53/72 29/54/72 94/55/72 85/52/72
f 80/52/73 81/55/73 82/57/73 79/58/73
f 81/52/74 83/55/74 84/57/74 82/58/74
f 83/52/75 85/55/75 86/57/75 84/58/75
f 79/57/76 87/58/76 88/52/76 80/55/76
f 89/57/77 91/58/77 92/52/77 90/55/77
f 91/57/78 93/58/78 94/52/78 92/55/78
f 87/57/79 89/58/79 90/52/79 88/55/79
f 85/52/80 94/55/80 93/57/80 86/58/80
f 88/52/81 23/53/81 21/54/81 80/55/81
f 98/45/82 102/46/82 13/47/82 15/48/82
f 97/59/61 101/60/61 102/61/61 98/62/61
f 16/50/61 79/49/61 141/63/61
f 91/49/61 144/64/61 18/50/61
f 8/50/61 89/49/61 142/63/61
f 2/50/61 87/49/61 143/64/61
f 100/65/61 96/66/61 95/67/61 99/68/61
f 101/60/61 97/59/61 96/66/61 100/65/61
f 110/69/83 109/70/83 117/71/83 118/72/83
f 108/73/84 107/70/84 115/74/84 116/75/84
f 106/73/85 105/70/85 113/74/85 114/75/85
f 104/69/86 103/70/86 111/71/86 112/72/86
f 103/76/87 110/69/87 118/72/87 111/77/87
f 109/78/88 108/73/88 116/75/88 117/79/88
f 107/78/89 106/73/89 114/75/89 115/79/89
f 105/76/90 104/69/90 112/72/90 113/77/90
f 127/80/91 128/81/91 129/82/91
f 130/83/92 131/82/92 132/80/92
f 133/81/93 134/82/93 135/80/93
f 136/80/94 137/81/94 138/82/94
f 123/84/95 127/80/95 129/82/95 124/85/95
f 128/86/96 130/87/96 132/7/96 129/6/96
f 133/86/97 137/87/97 136/7/97 134/6/97
f 119/84/98 132/80/98 131/82/98 120/88/98
f 127/7/99 138/6/99 137/86/99 128/87/99
f 121/84/100 135/80/100 134/82/100 122/88/100
f 125/84/101 136/80/101 138/82/101 126/88/101
f 130/86/102 133/87/102 135/7/102 131/6/102
f 120/5/103 131/6/103 135/7/103 121/8/103
f 39/15/10 33/14/10 32/89/10 41/90/10
f 41/90/10 32/89/10 45/91/10 43/92/10
f 28/4/104 139/3/104 147/22/104
f 11/3/105 9/21/105 148/22/105
f 86/49/61 26/50/61 147/56/61
f 84/93/61 148/94/61 82/95/61
f 147/96/61 84/97/61 86/98/61
f 148/51/61 84/49/61 140/50/61
f 147/22/104 139/3/104 140/21/104
f 139/4/105 148/22/105 140/99/105
f 141/56/61 82/49/61 9/50/61
f 146/22/24 28/3/24 26/21/24
f 146/22/24 24/99/24 22/4/24
f 22/3/19 145/22/19 20/4/19
f 20/4/19 145/22/19 18/99/19
f 5/3/21 142/22/21 3/4/21
f 3/4/21 142/22/21 2/99/21
f 144/94/61 91/95/61 89/93/61
f 89/49/61 8/50/61 144/51/61
f 143/51/61 79/49/61 16/50/61
f 79/93/61 143/94/61 87/95/61
f 3/3/23 143/22/23 14/4/23
f 14/4/23 143/22/23 16/99/23
f 91/98/61 145/96/61 93/97/61
f 93/49/61 145/63/61 24/50/61
f 84/49/61 147/63/61 140/50/61
f 147/22/106 26/99/106 28/4/106
f 14/3/107 141/22/107 11/4/107
f 20/3/22 144/22/22 5/4/22
f 5/4/22 144/22/22 8/99/22
f 142/56/61 87/49/61 2/50/61
f 87/98/61 142/96/61 89/97/61
f 146/64/61 26/50/61 86/49/61
f 86/95/61 93/93/61 146/94/61
f 11/4/107 141/22/107 9/99/107
f 82/49/61 148/64/61 9/50/61
f 141/96/61 79/97/61 82/98/61
f 148/22/105 139/4/105 11/3/105
f 100/45/108 99/46/108 7/47/108 10/48/108
f 66/100/10 63/101/10 149/102/10 150/103/10
f 70/100/10 67/101/10 151/102/10 152/103/10
f 74/100/10 71/101/10 153/102/10 154/103/10
f 78/100/10 75/101/10 155/102/10 156/103/10
f 71/100/10 78/101/10 156/102/10 153/103/10
f 67/100/10 66/101/10 150/102/10 151/103/10
f 75/100/10 70/101/10 152/102/10 155/103/10
f 63/100/10 74/101/10 154/102/10 149/103/10
f 47/104/61 49/105/61 158/106/61 157/107/61
f 51/104/61 47/105/61 157/106/61 159/107/61
f 56/104/61 54/105/61 160/106/61 161/107/61
f 58/104/61 56/105/61 161/106/61 162/107/61
f 62/104/61 60/105/61 163/106/61 164/107/61
f 54/104/61 51/105/61 159/106/61 160/107/61
f 49/104/61 62/105/61 164/106/61 158/107/61
f 60/104/61 58/105/61 162/106/61 163/107/61
