# Blender 4.0.2
# www.blender.org
mtllib gaussmeter.mtl
o gaussmeter
v -0.250141 0.250141 -0.820736
v -0.250141 -0.250141 -0.820736
v 0.250141 0.250141 -0.820736
v 0.250141 -0.250141 -0.820736
v -0.199452 0.199452 -0.899014
v -0.199452 -0.199452 -0.899014
v 0.199452 0.199452 -0.899014
v 0.199452 -0.199452 -0.899014
v -0.067228 0.067228 -1.027901
v -0.067228 -0.067228 -1.027901
v 0.067228 0.067228 -1.027901
v 0.067228 -0.067228 -1.027901
v 0.103917 -0.103917 1.013952
v 0.103917 0.103917 1.013952
v -0.103917 -0.103917 1.013952
v -0.103917 0.103917 1.013952
v 0.098244 0.098244 0.941981
v 0.098244 -0.098244 0.941981
v -0.098244 -0.098244 0.941981
v -0.098244 0.098244 0.941981
v 0.050903 0.053903 0.946417
v 0.050903 -0.055016 0.946417
v -0.058016 -0.055016 0.946417
v -0.058016 0.053903 0.946417
v 0.050903 0.053903 -0.114635
v 0.050903 -0.055016 -0.114635
v -0.058016 -0.055016 -0.114635
v -0.058016 0.053903 -0.114635
v 0.250141 -0.250141 -0.073439
v 0.250141 0.250141 -0.073439
v -0.250141 -0.250141 -0.073439
v -0.250141 0.250141 -0.073439
vn -0.0000 -0.0000 -1.0000
vn -0.0000 -1.0000 -0.0000
vn -1.0000 -0.0000 -0.0000
vn 1.0000 -0.0000 -0.0000
vn -0.0000 1.0000 -0.0000
vn -0.0000 -0.0000 1.0000
vn -0.0000 0.6980 -0.7161
vn -0.0000 -0.6980 -0.7161
vn -0.6980 -0.0000 -0.7161
vn 0.6980 -0.0000 -0.7161
vn -0.9969 -0.0000 -0.0786
vn -0.0000 -0.9969 -0.0786
vn -0.0000 0.9969 -0.0786
vn 0.9969 -0.0000 -0.0786
vt 0.375000 0.500000
vt 0.625000 0.500000
vt 0.375000 0.500000
s 0
f 4/1/1 2/1/1 1/2/1 3/2/1
f 29/1/2 31/3/2 2/1/2 4/1/2
f 31/3/3 32/2/3 1/2/3 2/1/3
f 30/2/4 29/1/4 4/1/4 3/2/4
f 32/2/5 30/2/5 3/2/5 1/2/5
f 8/1/6 7/2/6 5/2/6 6/1/6
f 12/1/1 10/1/1 9/2/1 11/2/1
f 5/2/7 7/2/7 11/2/7 9/2/7
f 8/1/8 6/1/8 10/1/8 12/1/8
f 6/1/9 5/2/9 9/2/9 10/1/9
f 7/2/10 8/1/10 12/1/10 11/2/10
f 13/1/6 14/2/6 16/2/6 15/1/6
f 16/2/11 20/2/11 19/1/11 15/1/11
f 15/1/12 19/1/12 18/1/12 13/1/12
f 14/2/13 17/2/13 20/2/13 16/2/13
f 18/1/1 19/1/1 20/2/1 17/2/1
f 22/1/6 21/2/6 24/2/6 23/1/6
f 26/1/1 27/1/1 28/2/1 25/2/1
f 23/1/2 27/1/2 26/1/2 22/1/2
f 21/2/5 25/2/5 28/2/5 24/2/5
f 22/1/4 26/1/4 25/2/4 21/2/4
f 24/2/3 28/2/3 27/1/3 23/1/3
f 30/2/6 32/2/6 31/3/6 29/1/6
f 13/1/14 18/1/14 17/2/14 14/2/14
