# Blender 4.0.2
# www.blender.org
mtllib naturalmagnet.mtl
o natural-magnet
v 0.978933 -0.660687 -0.993056
v 0.660687 -0.978933 -0.993056
v 0.660687 0.978933 -0.993056
v 0.978933 0.660687 -0.993056
v 0.643600 -0.965418 0.873798
v 0.965418 -0.643600 0.873798
v 0.965418 0.643600 0.873798
v 0.643600 0.965418 0.873798
v -0.660687 -0.978933 -0.993056
v -0.978933 -0.660687 -0.993056
v -0.978933 0.660687 -0.993056
v -0.660687 0.978933 -0.993056
v -0.965418 -0.643600 0.873798
v -0.643600 -0.965418 0.873798
v -0.643600 0.965418 0.873798
v -0.965418 0.643600 0.873798
v 0.484743 0.806561 0.353448
v 0.806561 0.484743 0.353448
v -0.484743 -0.806561 0.353448
v -0.806561 -0.484743 0.353448
v 0.806561 -0.484743 0.353448
v 0.484743 -0.806561 0.353448
v -0.806561 0.484743 0.353448
v -0.484743 0.806561 0.353448
v 0.526822 -0.879939 -0.023309
v 0.879939 -0.526822 -0.023309
v -0.526822 0.879939 -0.023309
v -0.879939 0.526822 -0.023309
v 0.879939 0.526822 -0.023309
v 0.526822 0.879939 -0.023309
v -0.879939 -0.526822 -0.023309
v -0.526822 -0.879939 -0.023309
v 0.259740 0.259740 1.011682
v -0.259740 0.259740 1.011682
v 0.259740 -0.259740 1.011682
v -0.259740 -0.259740 1.011682
v 0.259740 -0.259740 0.837958
v 0.259740 0.259740 0.837958
v -0.259740 0.259740 0.837958
v -0.259740 -0.259740 0.837958
v -0.592416 -0.592416 -0.052954
v 0.592416 -0.592416 -0.052954
v -0.592416 0.592416 -0.052954
v 0.592416 0.592416 -0.052954
v -0.592416 0.592416 0.366230
v -0.592416 -0.592416 0.366230
v 0.592416 -0.592416 0.366230
v 0.592416 0.592416 0.366230
vn -0.0000 0.9564 -0.2920
vn -0.0000 -0.9564 -0.2920
vn -0.9564 -0.0000 -0.2920
vn -0.0000 -0.9948 0.1016
vn -0.0000 0.9948 0.1016
vn -0.0000 -0.0000 1.0000
vn -0.0000 -0.0000 -1.0000
vn 0.9564 -0.0000 -0.2920
vn -0.9948 -0.0000 0.1016
vn 0.6971 -0.6971 0.1674
vn 0.6492 0.6492 -0.3964
vn -0.6492 -0.6492 -0.3964
vn -0.6971 0.6971 0.1674
vn 0.6492 -0.6492 -0.3964
vn -0.6492 0.6492 -0.3964
vn 0.6971 0.6971 0.1674
vn -0.6971 -0.6971 0.1674
vn 0.9948 -0.0000 0.1016
vn -1.0000 -0.0000 -0.0000
vn 1.0000 -0.0000 -0.0000
vn -0.0000 -1.0000 -0.0000
vn -0.0000 1.0000 -0.0000
vt 0.376758 0.999804
vt 0.176126 0.999804
vt 0.200887 0.915003
vt 0.351998 0.915003
vt 0.176126 0.578770
vt 0.376758 0.578770
vt 0.351998 0.663571
vt 0.200887 0.663571
vt 0.486959 0.688971
vt 0.486959 0.889603
vt 0.402158 0.864842
vt 0.402158 0.713731
vt 0.272902 0.426441
vt 0.437130 0.426440
vt 0.457995 0.578378
vt 0.252036 0.578378
vt 0.437130 0.152133
vt 0.272902 0.152133
vt 0.252036 0.000196
vt 0.457995 0.000196
vt 0.694660 0.000196
vt 0.644499 0.250989
vt 0.644499 0.050357
vt 0.150726 0.713731
vt 0.150726 0.864842
vt 0.065925 0.889603
vt 0.065925 0.688971
vt 0.492169 0.371401
vt 0.492169 0.207173
vt 0.644107 0.186307
vt 0.644107 0.392266
vt 0.742914 0.578770
vt 0.792518 0.628374
vt 0.536955 0.578770
vt 0.182321 0.570578
vt 0.195547 0.417786
vt 0.108031 0.979921
vt 0.132792 0.895121
vt 0.444853 0.598652
vt 0.420092 0.683453
vt 0.527711 0.007995
vt 0.514485 0.160787
vt 0.085808 0.620876
vt 0.170608 0.645637
vt 0.467077 0.957698
vt 0.382276 0.932937
vt 0.073724 0.116592
vt 0.226516 0.129818
vt 0.217862 0.207173
vt 0.065925 0.186307
vt 0.636307 0.461982
vt 0.483515 0.448756
vt 0.065925 0.392266
vt 0.217862 0.371401
vt 0.945453 0.050357
vt 0.945453 0.250989
vt 0.895292 0.301150
vt 0.694660 0.301150
vt 0.671576 0.409590
vt 0.671576 0.328620
vt 0.752547 0.328620
vt 0.752547 0.409590
vt 0.895292 0.000196
vt 0.487351 0.834333
vt 0.487351 0.628374
vt 0.742914 0.883937
vt 0.536955 0.883937
vt 0.792518 0.834333
vt 0.671576 0.301542
vt 0.752547 0.301542
vt 0.752547 0.436668
vt 0.671576 0.436668
vt 0.779624 0.328620
vt 0.779624 0.409590
vt 0.644499 0.409590
vt 0.644499 0.328620
vt 0.065533 0.369549
vt 0.065533 0.554225
vt 0.000196 0.554225
vt 0.000196 0.369549
vt 0.065533 0.000196
vt 0.065533 0.184872
vt 0.000196 0.184872
vt 0.000196 0.000196
vt 0.065533 0.738901
vt 0.000196 0.738901
s 0
usemtl magnet_nature
f 15/1/1 8/2/1 17/3/1 24/4/1
f 5/5/2 14/6/2 19/7/2 22/8/2
f 13/9/3 16/10/3 23/11/3 20/12/3
f 25/13/4 32/14/4 9/15/4 2/16/4
f 27/17/5 30/18/5 3/19/5 12/20/5
f 16/21/6 8/22/6 15/23/6
f 19/7/7 20/12/7 22/8/7
f 21/24/8 18/25/8 7/26/8 6/27/8
f 31/28/9 28/29/9 11/30/9 10/31/9
f 9/32/7 10/33/7 2/34/7
f 25/13/6 31/28/6 32/14/6
f 25/13/10 2/16/10 1/35/10 26/36/10
f 17/3/11 8/2/11 7/37/11 18/38/11
f 19/7/12 14/6/12 13/39/12 20/40/12
f 27/17/13 12/20/13 11/41/13 28/42/13
f 5/43/14 22/44/14 21/24/14 6/27/14
f 15/45/15 24/46/15 23/11/15 16/10/15
f 3/47/16 30/48/16 29/49/16 4/50/16
f 9/51/17 32/52/17 31/28/17 10/31/17
f 1/53/18 4/50/18 29/49/18 26/54/18
f 14/55/6 5/56/6 6/57/6
f 22/8/7 18/25/7 21/24/7
f 6/57/6 8/22/6 16/21/6 14/55/6
f 8/22/6 6/57/6 7/58/6
f 33/59/6 34/60/6 36/61/6 35/62/6
f 14/55/6 16/21/6 13/63/6
f 18/25/7 24/4/7 17/3/7
f 24/4/7 20/12/7 23/11/7
f 24/4/7 18/25/7 22/8/7 20/12/7
f 31/28/6 25/13/6 29/49/6 27/17/6
f 27/17/6 29/49/6 30/18/6
f 27/17/6 28/29/6 31/28/6
f 29/49/6 25/13/6 26/54/6
f 2/34/7 4/64/7 1/65/7
f 4/64/7 12/66/7 3/67/7
f 12/66/7 10/33/7 11/68/7
f 12/66/7 4/64/7 2/34/7 10/33/7
f 34/60/19 39/69/19 40/70/19 36/61/19
f 35/62/20 37/71/20 38/72/20 33/59/20
f 36/61/21 40/73/21 37/74/21 35/62/21
f 33/59/22 38/75/22 39/76/22 34/60/22
f 42/77/20 44/78/20 48/79/20 47/80/20
f 43/81/19 41/82/19 46/83/19 45/84/19
f 44/78/22 43/85/22 45/86/22 48/79/22
f 41/82/21 42/77/21 47/80/21 46/83/21
